<svg width="16" height="12" viewBox="0 0 16 12" fill="none" xmlns="http://www.w3.org/2000/svg">
<path d="M12.75 7V5.25H11V3.75H12.75V2H14.25V3.75H16V5.25H14.25V7H12.75ZM6 6C5.16667 6 4.45833 5.70833 3.875 5.125C3.29167 4.54167 3 3.83333 3 3C3 2.16667 3.29167 1.45833 3.875 0.875C4.45833 0.291666 5.16667 -1.43051e-06 6 -1.43051e-06C6.83333 -1.43051e-06 7.54167 0.291666 8.125 0.875C8.70833 1.45833 9 2.16667 9 3C9 3.83333 8.70833 4.54167 8.125 5.125C7.54167 5.70833 6.83333 6 6 6ZM1.78814e-07 12V10.0833C1.78814e-07 9.72222 0.0833335 9.39583 0.25 9.10417C0.430556 8.79861 0.673611 8.55556 0.979167 8.375C1.74306 7.93056 2.54861 7.59028 3.39583 7.35417C4.24306 7.11806 5.11111 7 6 7C6.88889 7 7.75694 7.11806 8.60417 7.35417C9.45139 7.59028 10.2569 7.93056 11.0208 8.375C11.3264 8.55556 11.5625 8.79861 11.7292 9.10417C11.9097 9.39583 12 9.72222 12 10.0833V12H1.78814e-07ZM1.5 10.5H10.5V10.0833C10.5 10 10.4792 9.92361 10.4375 9.85417C10.3958 9.77083 10.3403 9.70833 10.2708 9.66667C9.61806 9.29167 8.93056 9.00694 8.20833 8.8125C7.48611 8.60417 6.75 8.5 6 8.5C5.25 8.5 4.51389 8.60417 3.79167 8.8125C3.06944 9.00694 2.38194 9.29167 1.72917 9.66667C1.65972 9.70833 1.60417 9.77083 1.5625 9.85417C1.52083 9.92361 1.5 10 1.5 10.0833V10.5ZM6 4.5C6.41667 4.5 6.77083 4.35417 7.0625 4.0625C7.35417 3.77083 7.5 3.41667 7.5 3C7.5 2.58333 7.35417 2.22917 7.0625 1.9375C6.77083 1.64583 6.41667 1.5 6 1.5C5.58333 1.5 5.22917 1.64583 4.9375 1.9375C4.64583 2.22917 4.5 2.58333 4.5 3C4.5 3.41667 4.64583 3.77083 4.9375 4.0625C5.22917 4.35417 5.58333 4.5 6 4.5Z" fill="#778CA2"/>
</svg>
