<svg width="9" height="16" viewBox="0 0 9 16" fill="none" xmlns="http://www.w3.org/2000/svg">
<path d="M4.55 15.2C3.4 15.2 2.4375 14.7937 1.6625 13.9812C0.8875 13.1562 0.5 12.175 0.5 11.0375V3.74375C0.5 2.93125 0.78125 2.2375 1.34375 1.6625C1.91875 1.0875 2.6125 0.799999 3.425 0.799999C4.2625 0.799999 4.95625 1.10625 5.50625 1.71875C6.06875 2.31875 6.35 3.03125 6.35 3.85625V10.7187C6.35 11.2187 6.16875 11.6437 5.80625 11.9937C5.45625 12.3312 5.0375 12.5 4.55 12.5C4.025 12.5 3.59375 12.3125 3.25625 11.9375C2.91875 11.5625 2.75 11.125 2.75 10.625V3.5H4.1V10.7187C4.1 10.8437 4.14375 10.95 4.23125 11.0375C4.31875 11.125 4.425 11.1687 4.55 11.1687C4.675 11.1687 4.78125 11.125 4.86875 11.0375C4.95625 10.95 5 10.8437 5 10.7187V3.74375C5 3.30625 4.84375 2.93125 4.53125 2.61875C4.23125 2.30625 3.8625 2.15 3.425 2.15C2.9875 2.15 2.6125 2.3125 2.3 2.6375C2 2.95 1.85 3.33125 1.85 3.78125V11.1687C1.85 11.9187 2.1125 12.5562 2.6375 13.0812C3.175 13.5937 3.8125 13.85 4.55 13.85C5.325 13.85 5.96875 13.575 6.48125 13.025C6.99375 12.475 7.25 11.825 7.25 11.075V3.5H8.6V11.1687C8.6 12.2937 8.20625 13.25 7.41875 14.0375C6.64375 14.8125 5.6875 15.2 4.55 15.2Z" fill="#778CA2"/>
</svg>
