<svg width="12" height="14" viewBox="0 0 12 14" fill="none" xmlns="http://www.w3.org/2000/svg">
<path d="M1.6 13.4C1.26667 13.4 0.983334 13.2833 0.75 13.05C0.516667 12.8056 0.4 12.5222 0.4 12.2V3.4C0.4 3.07778 0.516667 2.8 0.75 2.56667C0.983334 2.32222 1.26667 2.2 1.6 2.2H2.8V0.599999H4V2.2H8V0.599999H9.2V2.2H10.4C10.7333 2.2 11.0167 2.32222 11.25 2.56667C11.4833 2.8 11.6 3.07778 11.6 3.4V12.2C11.6 12.5222 11.4833 12.8056 11.25 13.05C11.0167 13.2833 10.7333 13.4 10.4 13.4H1.6ZM1.6 12.2H10.4V6.2H1.6V12.2ZM1.6 5H10.4V3.4H1.6V5ZM1.6 5V3.4V5ZM2.8 8.6V7.4H9.2V8.6H2.8ZM2.8 11V9.8H7.6V11H2.8Z" fill="#778CA2"/>
</svg>
