<svg width="14" height="14" viewBox="0 0 14 14" fill="none" xmlns="http://www.w3.org/2000/svg">
<path d="M5 11C4.66667 11 4.38333 10.8833 4.15 10.65C3.91667 10.4167 3.8 10.1333 3.8 9.8V9H11.4V3.8H12.2C12.5333 3.8 12.8167 3.91667 13.05 4.15C13.2833 4.38333 13.4 4.66667 13.4 5V13.4L11 11H5ZM0.6 10.2V1.8C0.6 1.46667 0.716667 1.18333 0.95 0.949999C1.18333 0.716666 1.46667 0.599999 1.8 0.599999H9C9.33333 0.599999 9.61667 0.716666 9.85 0.949999C10.0833 1.18333 10.2 1.46667 10.2 1.8V6.6C10.2 6.93333 10.0833 7.21667 9.85 7.45C9.61667 7.68333 9.33333 7.8 9 7.8H3L0.6 10.2ZM9 6.6V1.8H1.8V6.6H9ZM1.8 6.6V1.8V6.6Z" fill="#778CA2"/>
</svg>
