<svg width="15" height="18" viewBox="0 0 15 18" fill="none" xmlns="http://www.w3.org/2000/svg">
<path d="M13.5 15H4.5C4.09722 15 3.74306 14.8542 3.4375 14.5625C3.14583 14.2569 3 13.9028 3 13.5V1.5C3 1.09722 3.14583 0.749999 3.4375 0.458333C3.74306 0.152777 4.09722 -9.53674e-07 4.5 -9.53674e-07H11L15 4V13.5C15 13.9028 14.8472 14.2569 14.5417 14.5625C14.25 14.8542 13.9028 15 13.5 15ZM10 5V1.5H4.5V13.5H13.5V5H10ZM1.5 18C1.09722 18 0.743056 17.8542 0.4375 17.5625C0.145833 17.2569 1.78814e-07 16.9028 1.78814e-07 16.5V5H1.5V16.5H11V18H1.5ZM4.5 1.5V5.5625V1.5V5.5625V13.5V1.5Z" fill="#778CA2"/>
</svg>
