<svg width="10" height="3" viewBox="0 0 10 3" fill="none" xmlns="http://www.w3.org/2000/svg">
<path d="M1.85 2.55C1.55833 2.55 1.31042 2.44792 1.10625 2.24375C0.902084 2.03958 0.8 1.79167 0.8 1.5C0.8 1.20833 0.902084 0.960417 1.10625 0.75625C1.31042 0.552083 1.55833 0.449999 1.85 0.449999C2.14167 0.449999 2.38958 0.552083 2.59375 0.75625C2.79792 0.960417 2.9 1.20833 2.9 1.5C2.9 1.79167 2.79792 2.03958 2.59375 2.24375C2.38958 2.44792 2.14167 2.55 1.85 2.55ZM5 2.55C4.70833 2.55 4.46042 2.44792 4.25625 2.24375C4.05208 2.03958 3.95 1.79167 3.95 1.5C3.95 1.20833 4.05208 0.960417 4.25625 0.75625C4.46042 0.552083 4.70833 0.449999 5 0.449999C5.29167 0.449999 5.53958 0.552083 5.74375 0.75625C5.94792 0.960417 6.05 1.20833 6.05 1.5C6.05 1.79167 5.94792 2.03958 5.74375 2.24375C5.53958 2.44792 5.29167 2.55 5 2.55ZM8.15 2.55C7.85833 2.55 7.61042 2.44792 7.40625 2.24375C7.20208 2.03958 7.1 1.79167 7.1 1.5C7.1 1.20833 7.20208 0.960417 7.40625 0.75625C7.61042 0.552083 7.85833 0.449999 8.15 0.449999C8.44167 0.449999 8.68958 0.552083 8.89375 0.75625C9.09792 0.960417 9.2 1.20833 9.2 1.5C9.2 1.79167 9.09792 2.03958 8.89375 2.24375C8.68958 2.44792 8.44167 2.55 8.15 2.55Z" fill="#4D7CFE"/>
</svg>
