<svg width="77" height="66" viewBox="0 0 77 66" fill="none" xmlns="http://www.w3.org/2000/svg">
<path d="M12.5762 29C12.5762 27.8954 13.4769 27 14.5815 27C15.6861 27 16.5868 27.8954 16.5868 29V66H12.5762V29Z" fill="#E8ECEF"/>
<path d="M60.7051 32C60.7051 30.8954 61.6058 30 62.7104 30C63.815 30 64.7157 30.8954 64.7157 32V66H60.7051V32Z" fill="#E8ECEF"/>
<path d="M36.6406 8C36.6406 6.89543 37.5414 6 38.646 6C39.7505 6 40.6513 6.89543 40.6513 8V66H36.6406V8Z" fill="#E8ECEF"/>
<path d="M24.6094 8C24.6094 6.89543 25.5101 6 26.6147 6C27.7193 6 28.62 6.89543 28.62 8V66H24.6094V8Z" fill="#E8ECEF"/>
<path d="M72.7363 27C72.7363 25.8954 73.6371 25 74.7417 25C75.8462 25 76.747 25.8954 76.747 27V66H72.7363V27Z" fill="#E8ECEF"/>
<path d="M48.6738 20C48.6738 18.8954 49.5746 18 50.6792 18C51.7837 18 52.6845 18.8954 52.6845 20V66H48.6738V20Z" fill="#E8ECEF"/>
<path d="M0.544922 2C0.544922 0.895429 1.44569 0 2.55026 0C3.65482 0 4.55559 0.895431 4.55559 2V66H0.544922V2Z" fill="#6DD230"/>
</svg>
