<svg width="17" height="16" viewBox="0 0 17 16" fill="none" xmlns="http://www.w3.org/2000/svg">
<path d="M3 13.5V12H4V7C4 6.43056 4.09028 5.88889 4.27083 5.375C4.46528 4.84722 4.72222 4.35417 5.04167 3.89583L6.14583 5C5.9375 5.29167 5.77778 5.61111 5.66667 5.95833C5.55556 6.29167 5.5 6.63889 5.5 7V12H11L0.875 1.875L1.9375 0.791666L16.0625 14.9375L15 16L12.5 13.5H3ZM14 10.75L12.5 9.25V7C12.5 6.02778 12.1597 5.20139 11.4792 4.52083C10.7986 3.84028 9.97222 3.5 9 3.5C8.68056 3.5 8.375 3.54167 8.08333 3.625C7.79167 3.70833 7.50694 3.82639 7.22917 3.97917L6.14583 2.875C6.42361 2.68055 6.71528 2.52083 7.02083 2.39583C7.34028 2.27083 7.66667 2.17361 8 2.10417V1C8 0.722221 8.09722 0.48611 8.29167 0.291666C8.48611 0.0972216 8.72222 -7.15256e-07 9 -7.15256e-07C9.27778 -7.15256e-07 9.51389 0.0972216 9.70833 0.291666C9.90278 0.48611 10 0.722221 10 1V2.10417C11.1806 2.32639 12.1389 2.89583 12.875 3.8125C13.625 4.72917 14 5.79167 14 7V10.75ZM9 16C8.58333 16 8.22917 15.8542 7.9375 15.5625C7.64583 15.2708 7.5 14.9167 7.5 14.5H10.5C10.5 14.9167 10.3542 15.2708 10.0625 15.5625C9.77083 15.8542 9.41667 16 9 16Z" fill="#778CA2"/>
</svg>
