<svg width="23" height="26" viewBox="0 0 23 26" fill="none" xmlns="http://www.w3.org/2000/svg">
<circle cx="20" cy="3" r="3" fill="#FE4D97"/>
<path d="M4 19.5V18H5V13C5 11.7917 5.36806 10.7292 6.10417 9.8125C6.85417 8.89583 7.81944 8.32639 9 8.10417V7C9 6.72222 9.09722 6.48611 9.29167 6.29167C9.48611 6.09722 9.72222 6 10 6C10.2778 6 10.5139 6.09722 10.7083 6.29167C10.9028 6.48611 11 6.72222 11 7V8.10417C12.1806 8.32639 13.1389 8.89583 13.875 9.8125C14.625 10.7292 15 11.7917 15 13V18H16V19.5H4ZM10 22C9.58333 22 9.22917 21.8542 8.9375 21.5625C8.64583 21.2708 8.5 20.9167 8.5 20.5H11.5C11.5 20.9167 11.3542 21.2708 11.0625 21.5625C10.7708 21.8542 10.4167 22 10 22ZM6.5 18H13.5V13C13.5 12.0278 13.1597 11.2014 12.4792 10.5208C11.7986 9.84028 10.9722 9.5 10 9.5C9.02778 9.5 8.20139 9.84028 7.52083 10.5208C6.84028 11.2014 6.5 12.0278 6.5 13V18Z" fill="#778CA2"/>
</svg>
