<svg width="13" height="12" viewBox="0 0 13 12" fill="none" xmlns="http://www.w3.org/2000/svg">
<path d="M5.975 8.8H7.025V6.525H9.3V5.475H7.025V3.2H5.975V5.475H3.7V6.525H5.975V8.8ZM6.5 11.6C5.73194 11.6 5.00764 11.4542 4.32708 11.1625C3.64653 10.8708 3.04861 10.4722 2.53333 9.96667C2.02778 9.45139 1.62917 8.85347 1.3375 8.17292C1.04583 7.49236 0.9 6.76806 0.9 6C0.9 5.22222 1.04583 4.49792 1.3375 3.82708C1.62917 3.14653 2.02778 2.55347 2.53333 2.04792C3.04861 1.53264 3.64653 1.12917 4.32708 0.837499C5.00764 0.545833 5.73194 0.399999 6.5 0.399999C7.27778 0.399999 8.00208 0.545833 8.67292 0.837499C9.35347 1.12917 9.94653 1.53264 10.4521 2.04792C10.9674 2.55347 11.3708 3.14653 11.6625 3.82708C11.9542 4.49792 12.1 5.22222 12.1 6C12.1 6.76806 11.9542 7.49236 11.6625 8.17292C11.3708 8.85347 10.9674 9.45139 10.4521 9.96667C9.94653 10.4722 9.35347 10.8708 8.67292 11.1625C8.00208 11.4542 7.27778 11.6 6.5 11.6ZM6.5 10.55C7.76389 10.55 8.83819 10.1076 9.72292 9.22292C10.6076 8.33819 11.05 7.26389 11.05 6C11.05 4.73611 10.6076 3.66181 9.72292 2.77708C8.83819 1.89236 7.76389 1.45 6.5 1.45C5.23611 1.45 4.16181 1.89236 3.27708 2.77708C2.39236 3.66181 1.95 4.73611 1.95 6C1.95 7.26389 2.39236 8.33819 3.27708 9.22292C4.16181 10.1076 5.23611 10.55 6.5 10.55Z" fill="#778CA2"/>
</svg>
