<svg width="14" height="14" viewBox="0 0 14 14" fill="none" xmlns="http://www.w3.org/2000/svg">
<path d="M12.9375 14L7.95833 9.02083C7.54167 9.32639 7.08333 9.56944 6.58333 9.75C6.08333 9.91667 5.55556 10 5 10C3.61111 10 2.43056 9.51389 1.45833 8.54167C0.486111 7.56944 1.19209e-07 6.38889 1.19209e-07 5C1.19209e-07 3.61111 0.486111 2.43055 1.45833 1.45833C2.43056 0.48611 3.61111 -4.76837e-07 5 -4.76837e-07C6.38889 -4.76837e-07 7.56945 0.48611 8.54167 1.45833C9.51389 2.43055 10 3.61111 10 5C10 5.55556 9.90972 6.08333 9.72917 6.58333C9.5625 7.08333 9.32639 7.54167 9.02083 7.95833L14 12.9375L12.9375 14ZM5 8.5C5.97222 8.5 6.79861 8.15972 7.47917 7.47917C8.15972 6.79861 8.5 5.97222 8.5 5C8.5 4.02778 8.15972 3.20139 7.47917 2.52083C6.79861 1.84028 5.97222 1.5 5 1.5C4.02778 1.5 3.20139 1.84028 2.52083 2.52083C1.84028 3.20139 1.5 4.02778 1.5 5C1.5 5.97222 1.84028 6.79861 2.52083 7.47917C3.20139 8.15972 4.02778 8.5 5 8.5Z" fill="#778CA2"/>
</svg>
