<svg width="12" height="4" viewBox="0 0 12 4" fill="none" xmlns="http://www.w3.org/2000/svg">
<path d="M1.95 3.35C1.575 3.35 1.25625 3.21875 0.99375 2.95625C0.73125 2.69375 0.6 2.375 0.6 2C0.6 1.625 0.73125 1.30625 0.99375 1.04375C1.25625 0.781249 1.575 0.649999 1.95 0.649999C2.325 0.649999 2.64375 0.781249 2.90625 1.04375C3.16875 1.30625 3.3 1.625 3.3 2C3.3 2.375 3.16875 2.69375 2.90625 2.95625C2.64375 3.21875 2.325 3.35 1.95 3.35ZM6 3.35C5.625 3.35 5.30625 3.21875 5.04375 2.95625C4.78125 2.69375 4.65 2.375 4.65 2C4.65 1.625 4.78125 1.30625 5.04375 1.04375C5.30625 0.781249 5.625 0.649999 6 0.649999C6.375 0.649999 6.69375 0.781249 6.95625 1.04375C7.21875 1.30625 7.35 1.625 7.35 2C7.35 2.375 7.21875 2.69375 6.95625 2.95625C6.69375 3.21875 6.375 3.35 6 3.35ZM10.05 3.35C9.675 3.35 9.35625 3.21875 9.09375 2.95625C8.83125 2.69375 8.7 2.375 8.7 2C8.7 1.625 8.83125 1.30625 9.09375 1.04375C9.35625 0.781249 9.675 0.649999 10.05 0.649999C10.425 0.649999 10.7438 0.781249 11.0063 1.04375C11.2688 1.30625 11.4 1.625 11.4 2C11.4 2.375 11.2688 2.69375 11.0063 2.95625C10.7438 3.21875 10.425 3.35 10.05 3.35Z" fill="#778CA2"/>
</svg>
