<svg width="163" height="32" viewBox="0 0 163 32" fill="none" xmlns="http://www.w3.org/2000/svg">
<path d="M92.6742 2.4231L93.4606 4.4677C93.5708 4.75429 93.6259 4.89758 93.7116 5.01812C93.7876 5.12494 93.8809 5.21827 93.9877 5.29423C94.1083 5.37994 94.2516 5.43505 94.5382 5.54528L96.5828 6.33166L94.5382 7.11805C94.2516 7.22828 94.1083 7.28339 93.9877 7.3691C93.8809 7.44505 93.7876 7.53839 93.7116 7.64521C93.6259 7.76575 93.5708 7.90904 93.4606 8.19563L92.6742 10.2402L91.8878 8.19563C91.7776 7.90904 91.7225 7.76575 91.6368 7.64521C91.5608 7.53839 91.4675 7.44505 91.3606 7.3691C91.2401 7.28339 91.0968 7.22828 90.8102 7.11805L88.7656 6.33166L90.8102 5.54528C91.0968 5.43505 91.2401 5.37994 91.3606 5.29423C91.4675 5.21827 91.5608 5.12494 91.6368 5.01811C91.7225 4.89758 91.7776 4.75429 91.8878 4.4677L92.6742 2.4231Z" fill="black"/>
<path d="M92.6742 2.4231L93.4606 4.4677C93.5708 4.75429 93.6259 4.89758 93.7116 5.01812C93.7876 5.12494 93.8809 5.21827 93.9877 5.29423C94.1083 5.37994 94.2516 5.43505 94.5382 5.54528L96.5828 6.33166L94.5382 7.11805C94.2516 7.22828 94.1083 7.28339 93.9877 7.3691C93.8809 7.44505 93.7876 7.53839 93.7116 7.64521C93.6259 7.76575 93.5708 7.90904 93.4606 8.19563L92.6742 10.2402L91.8878 8.19563C91.7776 7.90904 91.7225 7.76575 91.6368 7.64521C91.5608 7.53839 91.4675 7.44505 91.3606 7.3691C91.2401 7.28339 91.0968 7.22828 90.8102 7.11805L88.7656 6.33166L90.8102 5.54528C91.0968 5.43505 91.2401 5.37994 91.3606 5.29423C91.4675 5.21827 91.5608 5.12494 91.6368 5.01811C91.7225 4.89758 91.7776 4.75429 91.8878 4.4677L92.6742 2.4231Z" fill="url(#paint0_linear_1970_7961)"/>
<path d="M92.6742 2.4231L93.4606 4.4677C93.5708 4.75429 93.6259 4.89758 93.7116 5.01812C93.7876 5.12494 93.8809 5.21827 93.9877 5.29423C94.1083 5.37994 94.2516 5.43505 94.5382 5.54528L96.5828 6.33166L94.5382 7.11805C94.2516 7.22828 94.1083 7.28339 93.9877 7.3691C93.8809 7.44505 93.7876 7.53839 93.7116 7.64521C93.6259 7.76575 93.5708 7.90904 93.4606 8.19563L92.6742 10.2402L91.8878 8.19563C91.7776 7.90904 91.7225 7.76575 91.6368 7.64521C91.5608 7.53839 91.4675 7.44505 91.3606 7.3691C91.2401 7.28339 91.0968 7.22828 90.8102 7.11805L88.7656 6.33166L90.8102 5.54528C91.0968 5.43505 91.2401 5.37994 91.3606 5.29423C91.4675 5.21827 91.5608 5.12494 91.6368 5.01811C91.7225 4.89758 91.7776 4.75429 91.8878 4.4677L92.6742 2.4231Z" fill="url(#paint1_linear_1970_7961)"/>
<path d="M92.6742 2.4231L93.4606 4.4677C93.5708 4.75429 93.6259 4.89758 93.7116 5.01811C93.7876 5.12494 93.8809 5.21827 93.9877 5.29423C94.1083 5.37994 94.2516 5.43505 94.5382 5.54528L96.5828 6.33166L94.5382 7.11805C94.2516 7.22828 94.1083 7.28339 93.9877 7.3691C93.8809 7.44505 93.7876 7.53839 93.7116 7.64521C93.6259 7.76575 93.5708 7.90904 93.4606 8.19563L92.6742 10.2402L91.8878 8.19563C91.7776 7.90904 91.7225 7.76575 91.6368 7.64521C91.5608 7.53839 91.4675 7.44505 91.3606 7.3691C91.2401 7.28339 91.0968 7.22828 90.8102 7.11805L88.7656 6.33166L90.8102 5.54528C91.0968 5.43505 91.2401 5.37994 91.3606 5.29423C91.4675 5.21827 91.5608 5.12494 91.6368 5.01811C91.7225 4.89758 91.7776 4.75429 91.8878 4.4677L92.6742 2.4231Z" stroke="black" stroke-width="0.586285" stroke-linecap="round" stroke-linejoin="round"/>
<path d="M92.6742 2.4231L93.4606 4.4677C93.5708 4.75429 93.6259 4.89758 93.7116 5.01811C93.7876 5.12494 93.8809 5.21827 93.9877 5.29423C94.1083 5.37994 94.2516 5.43505 94.5382 5.54528L96.5828 6.33166L94.5382 7.11805C94.2516 7.22828 94.1083 7.28339 93.9877 7.3691C93.8809 7.44505 93.7876 7.53839 93.7116 7.64521C93.6259 7.76575 93.5708 7.90904 93.4606 8.19563L92.6742 10.2402L91.8878 8.19563C91.7776 7.90904 91.7225 7.76575 91.6368 7.64521C91.5608 7.53839 91.4675 7.44505 91.3606 7.3691C91.2401 7.28339 91.0968 7.22828 90.8102 7.11805L88.7656 6.33166L90.8102 5.54528C91.0968 5.43505 91.2401 5.37994 91.3606 5.29423C91.4675 5.21827 91.5608 5.12494 91.6368 5.01811C91.7225 4.89758 91.7776 4.75429 91.8878 4.4677L92.6742 2.4231Z" stroke="url(#paint2_linear_1970_7961)" stroke-width="0.586285" stroke-linecap="round" stroke-linejoin="round"/>
<path d="M92.6742 2.4231L93.4606 4.4677C93.5708 4.75429 93.6259 4.89758 93.7116 5.01811C93.7876 5.12494 93.8809 5.21827 93.9877 5.29423C94.1083 5.37994 94.2516 5.43505 94.5382 5.54528L96.5828 6.33166L94.5382 7.11805C94.2516 7.22828 94.1083 7.28339 93.9877 7.3691C93.8809 7.44505 93.7876 7.53839 93.7116 7.64521C93.6259 7.76575 93.5708 7.90904 93.4606 8.19563L92.6742 10.2402L91.8878 8.19563C91.7776 7.90904 91.7225 7.76575 91.6368 7.64521C91.5608 7.53839 91.4675 7.44505 91.3606 7.3691C91.2401 7.28339 91.0968 7.22828 90.8102 7.11805L88.7656 6.33166L90.8102 5.54528C91.0968 5.43505 91.2401 5.37994 91.3606 5.29423C91.4675 5.21827 91.5608 5.12494 91.6368 5.01811C91.7225 4.89758 91.7776 4.75429 91.8878 4.4677L92.6742 2.4231Z" stroke="url(#paint3_linear_1970_7961)" stroke-width="0.586285" stroke-linecap="round" stroke-linejoin="round"/>
<path d="M53.3759 7.07157H59.7814V25.9255H55.7931V18.5531C55.7931 15.9668 55.8414 13.4046 56.059 10.8182H55.8173L52.2157 25.9255H48.6624L44.9883 10.8182H44.7466C44.94 13.3804 44.9883 15.9184 44.9883 18.5531V25.9255H41V7.07157H47.6231L49.4359 14.5165C49.9194 16.4502 50.3303 19.1091 50.4511 20.9461H50.6929C50.7895 19.1091 51.1763 16.4019 51.6114 14.5406L53.3759 7.07157Z" fill="#1B1B1B"/>
<path d="M74.0796 16.8369V21.3812C74.0796 22.2514 74.3938 22.6623 75.0223 22.6623C75.2398 22.6623 75.3123 22.6623 75.3607 22.6382V25.5388C74.5872 25.8288 73.9829 25.9255 73.1611 25.9255C71.5899 25.9255 70.8647 25.3937 70.5263 24.3544C69.7045 25.5871 68.4234 26.1672 66.6589 26.1672C63.8066 26.1672 62.0662 24.6444 62.0662 22.058C62.0662 19.2058 64.3625 17.683 68.0125 17.683C68.5443 17.683 69.2694 17.7313 69.9462 17.8522V17.0303C69.9462 15.3625 69.3177 14.589 68.2058 14.589C67.0698 14.589 66.4413 15.29 66.1754 16.8369L62.6705 16.1843C63.3473 13.4046 65.4019 11.9059 68.4959 11.9059C71.9525 11.9059 74.0796 13.7188 74.0796 16.8369ZM67.8433 23.3875C69.2452 23.3875 69.9462 22.5173 69.9462 20.511C69.4869 20.3902 68.8343 20.3177 68.23 20.3177C66.9731 20.3177 66.1754 20.922 66.1754 21.9614C66.1754 22.7832 66.8039 23.3875 67.8433 23.3875Z" fill="#1B1B1B"/>
<path d="M81.0103 22.7107H84.0559C87.5124 22.7107 89.277 24.1852 89.277 26.6023C89.277 29.2612 86.9323 31.7267 81.8321 31.7267C76.9977 31.7267 75.3541 30.0589 75.3541 28.4635C75.3541 27.0858 76.1759 26.2881 77.5537 25.7563C76.6352 25.1278 76.2001 24.1852 76.2001 23.2666C76.2001 21.7438 77.0219 20.7286 78.2063 20.0276C77.2153 19.2541 76.611 18.118 76.611 16.6194C76.611 13.4529 79.3424 11.9784 82.4364 11.9784C83.0165 11.9784 83.5966 12.0268 84.1526 12.1476C84.9261 9.89966 86.7631 9.00531 88.9144 9.00531V12.3168C87.8267 12.3168 86.9323 12.4135 86.2072 12.9211C87.4399 13.6705 88.2376 14.9032 88.2376 16.6194C88.2376 19.7859 85.5545 21.2845 82.4364 21.2845C81.4695 21.2845 80.551 21.1395 79.7292 20.8495C79.4633 21.067 79.3182 21.3571 79.3182 21.6955C79.3182 22.3481 79.7533 22.7107 81.0103 22.7107ZM82.4364 14.1539C81.4695 14.1539 80.5993 14.8065 80.5993 16.6194C80.5993 18.4081 81.4695 19.1333 82.4364 19.1333C83.4033 19.1333 84.2493 18.4323 84.2493 16.6194C84.2493 14.8065 83.4033 14.1539 82.4364 14.1539ZM82.6298 26.4815H80.3093C79.9225 26.4815 79.5841 26.4573 79.2699 26.409C78.9798 26.7715 78.9073 27.2066 78.9073 27.5934C78.9073 28.8745 80.3818 29.3096 82.243 29.3096C84.0075 29.3096 85.0228 28.7294 85.0228 27.7867C85.0228 26.8199 84.2251 26.4815 82.6298 26.4815Z" fill="#1B1B1B"/>
<path d="M94.6118 12.1476V25.9255H90.5026V12.1476H94.6118Z" fill="#1B1B1B"/>
<path d="M104.836 20.8736L108.8 21.9614C107.664 25.3212 105.223 26.1672 102.588 26.1672C98.5757 26.1672 96.3278 23.7017 96.3278 19.2541C96.3278 14.734 98.7691 11.9059 102.709 11.9059C105.851 11.9059 107.834 13.2112 108.68 16.6436L104.909 17.5863C104.594 15.58 103.797 14.6615 102.709 14.6615C101.501 14.6615 100.437 15.58 100.437 18.9882C100.437 22.2272 101.355 23.3875 102.757 23.3875C103.628 23.3875 104.498 22.8074 104.836 20.8736Z" fill="#1B1B1B"/>
<path d="M121.743 7.07157V10.5765H116.667V25.9255H112.316V10.5765H107.24V7.07157H121.743Z" fill="#1B1B1B"/>
<path d="M127.032 11.9059C130.779 11.9059 133.776 14.0572 133.776 18.8432C133.776 23.9918 130.851 26.1672 127.032 26.1672C123.285 26.1672 120.288 24.0159 120.288 19.2299C120.288 14.0814 123.213 11.9059 127.032 11.9059ZM127.032 23.1458C128.724 23.1458 129.546 21.8405 129.546 18.9882C129.546 16.7403 128.821 14.9274 127.032 14.9274C125.34 14.9274 124.518 16.2085 124.518 19.0849C124.518 21.3329 125.243 23.1458 127.032 23.1458Z" fill="#1B1B1B"/>
<path d="M143.714 6.58813H147.824V25.9255H143.835V25.7805C143.835 25.3454 143.859 24.9828 143.956 24.4269H143.859C142.989 25.5388 141.781 26.1672 140.306 26.1672C136.705 26.1672 134.747 23.6292 134.747 18.9882C134.747 14.8549 137.164 11.9059 140.548 11.9059C141.974 11.9059 143.086 12.4377 143.908 13.4529H143.98C143.763 12.4619 143.714 11.7609 143.714 9.70629V6.58813ZM141.515 23.1699C143.038 23.1699 143.908 21.6471 143.908 18.9641C143.908 16.1843 143.086 14.8549 141.394 14.8549C139.871 14.8549 138.928 16.426 138.928 18.9882C138.928 21.6229 139.895 23.1699 141.515 23.1699Z" fill="#1B1B1B"/>
<path d="M156.256 11.9059C160.003 11.9059 163 14.0572 163 18.8432C163 23.9918 160.075 26.1672 156.256 26.1672C152.509 26.1672 149.512 24.0159 149.512 19.2299C149.512 14.0814 152.437 11.9059 156.256 11.9059ZM156.256 23.1458C157.948 23.1458 158.77 21.8405 158.77 18.9882C158.77 16.7403 158.045 14.9274 156.256 14.9274C154.564 14.9274 153.742 16.2085 153.742 19.0849C153.742 21.3329 154.467 23.1458 156.256 23.1458Z" fill="#1B1B1B"/>
<rect width="32" height="32" rx="3.2" fill="#151523"/>
<rect width="32" height="32" rx="3.2" fill="url(#paint4_radial_1970_7961)" fill-opacity="0.2"/>
<rect x="3.85938" y="16.9844" width="6.864" height="6.864" transform="rotate(-45 3.85938 16.9844)" fill="url(#paint5_linear_1970_7961)"/>
<rect x="8.69922" y="21.8242" width="6.864" height="6.864" transform="rotate(-45 8.69922 21.8242)" fill="#4146D8"/>
<rect x="8.69922" y="21.8242" width="6.864" height="6.864" transform="rotate(-45 8.69922 21.8242)" fill="url(#paint6_linear_1970_7961)"/>
<rect x="13.5391" y="16.9844" width="6.864" height="6.864" transform="rotate(-45 13.5391 16.9844)" fill="#C674FC"/>
<rect x="13.5391" y="16.9844" width="6.864" height="6.864" transform="rotate(-45 13.5391 16.9844)" fill="url(#paint7_linear_1970_7961)"/>
<rect x="13.5391" y="16.9844" width="6.864" height="6.864" transform="rotate(-45 13.5391 16.9844)" fill="url(#paint8_linear_1970_7961)"/>
<rect x="18.3789" y="12.1445" width="6.864" height="6.864" transform="rotate(-45 18.3789 12.1445)" fill="#FDD0FD"/>
<rect x="18.3789" y="12.1445" width="6.864" height="6.864" transform="rotate(-45 18.3789 12.1445)" fill="url(#paint9_linear_1970_7961)"/>
<rect x="18.3789" y="12.1445" width="6.864" height="6.864" transform="rotate(-45 18.3789 12.1445)" fill="url(#paint10_linear_1970_7961)"/>
<path d="M13.1913 7.31481C13.326 6.96471 13.3933 6.78966 13.462 6.70819C13.7151 6.40789 14.1777 6.40789 14.4308 6.70819C14.4995 6.78966 14.5668 6.96471 14.7015 7.31481C14.8073 7.59 14.8603 7.72759 14.9426 7.84332C15.0155 7.9459 15.1051 8.03552 15.2077 8.10845C15.3234 8.19075 15.461 8.24367 15.7362 8.34951C16.0863 8.48416 16.2613 8.55149 16.3428 8.62017C16.6431 8.87332 16.6431 9.33589 16.3428 9.58904C16.2613 9.65772 16.0863 9.72505 15.7362 9.8597C15.461 9.96554 15.3234 10.0185 15.2077 10.1008C15.1051 10.1737 15.0155 10.2633 14.9426 10.3659C14.8603 10.4816 14.8073 10.6192 14.7015 10.8944C14.5668 11.2445 14.4995 11.4195 14.4308 11.501C14.1777 11.8013 13.7151 11.8013 13.462 11.501C13.3933 11.4195 13.326 11.2445 13.1913 10.8944C13.0855 10.6192 13.0325 10.4816 12.9503 10.3659C12.8773 10.2633 12.7877 10.1737 12.6851 10.1008C12.5694 10.0185 12.4318 9.96554 12.1566 9.8597C11.8065 9.72505 11.6315 9.65772 11.55 9.58904C11.2497 9.33589 11.2497 8.87332 11.55 8.62017C11.6315 8.55149 11.8065 8.48416 12.1566 8.34951C12.4318 8.24367 12.5694 8.19075 12.6851 8.10845C12.7877 8.03552 12.8773 7.9459 12.9503 7.84332C13.0325 7.72759 13.0855 7.58999 13.1913 7.31481Z" fill="black"/>
<path d="M13.1913 7.31481C13.326 6.96471 13.3933 6.78966 13.462 6.70819C13.7151 6.40789 14.1777 6.40789 14.4308 6.70819C14.4995 6.78966 14.5668 6.96471 14.7015 7.31481C14.8073 7.59 14.8603 7.72759 14.9426 7.84332C15.0155 7.9459 15.1051 8.03552 15.2077 8.10845C15.3234 8.19075 15.461 8.24367 15.7362 8.34951C16.0863 8.48416 16.2613 8.55149 16.3428 8.62017C16.6431 8.87332 16.6431 9.33589 16.3428 9.58904C16.2613 9.65772 16.0863 9.72505 15.7362 9.8597C15.461 9.96554 15.3234 10.0185 15.2077 10.1008C15.1051 10.1737 15.0155 10.2633 14.9426 10.3659C14.8603 10.4816 14.8073 10.6192 14.7015 10.8944C14.5668 11.2445 14.4995 11.4195 14.4308 11.501C14.1777 11.8013 13.7151 11.8013 13.462 11.501C13.3933 11.4195 13.326 11.2445 13.1913 10.8944C13.0855 10.6192 13.0325 10.4816 12.9503 10.3659C12.8773 10.2633 12.7877 10.1737 12.6851 10.1008C12.5694 10.0185 12.4318 9.96554 12.1566 9.8597C11.8065 9.72505 11.6315 9.65772 11.55 9.58904C11.2497 9.33589 11.2497 8.87332 11.55 8.62017C11.6315 8.55149 11.8065 8.48416 12.1566 8.34951C12.4318 8.24367 12.5694 8.19075 12.6851 8.10845C12.7877 8.03552 12.8773 7.9459 12.9503 7.84332C13.0325 7.72759 13.0855 7.58999 13.1913 7.31481Z" fill="white"/>
<path d="M13.1913 7.31481C13.326 6.96471 13.3933 6.78966 13.462 6.70819C13.7151 6.40789 14.1777 6.40789 14.4308 6.70819C14.4995 6.78966 14.5668 6.96471 14.7015 7.31481C14.8073 7.59 14.8603 7.72759 14.9426 7.84332C15.0155 7.9459 15.1051 8.03552 15.2077 8.10845C15.3234 8.19075 15.461 8.24367 15.7362 8.34951C16.0863 8.48416 16.2613 8.55149 16.3428 8.62017C16.6431 8.87332 16.6431 9.33589 16.3428 9.58904C16.2613 9.65772 16.0863 9.72505 15.7362 9.8597C15.461 9.96554 15.3234 10.0185 15.2077 10.1008C15.1051 10.1737 15.0155 10.2633 14.9426 10.3659C14.8603 10.4816 14.8073 10.6192 14.7015 10.8944C14.5668 11.2445 14.4995 11.4195 14.4308 11.501C14.1777 11.8013 13.7151 11.8013 13.462 11.501C13.3933 11.4195 13.326 11.2445 13.1913 10.8944C13.0855 10.6192 13.0325 10.4816 12.9503 10.3659C12.8773 10.2633 12.7877 10.1737 12.6851 10.1008C12.5694 10.0185 12.4318 9.96554 12.1566 9.8597C11.8065 9.72505 11.6315 9.65772 11.55 9.58904C11.2497 9.33589 11.2497 8.87332 11.55 8.62017C11.6315 8.55149 11.8065 8.48416 12.1566 8.34951C12.4318 8.24367 12.5694 8.19075 12.6851 8.10845C12.7877 8.03552 12.8773 7.9459 12.9503 7.84332C13.0325 7.72759 13.0855 7.58999 13.1913 7.31481Z" fill="url(#paint11_linear_1970_7961)"/>
<defs>
<linearGradient id="paint0_linear_1970_7961" x1="92.6742" y1="2.4231" x2="92.6742" y2="10.2402" gradientUnits="userSpaceOnUse">
<stop stop-color="#DD4FFB"/>
<stop offset="1" stop-color="#6B87FD"/>
</linearGradient>
<linearGradient id="paint1_linear_1970_7961" x1="92.6742" y1="2.4231" x2="92.6742" y2="10.2402" gradientUnits="userSpaceOnUse">
<stop stop-color="#6859FA"/>
<stop offset="1" stop-color="#5124F9"/>
</linearGradient>
<linearGradient id="paint2_linear_1970_7961" x1="92.6742" y1="2.4231" x2="92.6742" y2="10.2402" gradientUnits="userSpaceOnUse">
<stop stop-color="#DD4FFB"/>
<stop offset="1" stop-color="#6B87FD"/>
</linearGradient>
<linearGradient id="paint3_linear_1970_7961" x1="92.6742" y1="2.4231" x2="92.6742" y2="10.2402" gradientUnits="userSpaceOnUse">
<stop stop-color="#6859FA"/>
<stop offset="1" stop-color="#5124F9"/>
</linearGradient>
<radialGradient id="paint4_radial_1970_7961" cx="0" cy="0" r="1" gradientUnits="userSpaceOnUse" gradientTransform="translate(16 -3.28) rotate(90) scale(21)">
<stop stop-color="#2F00FF" stop-opacity="0"/>
<stop offset="1" stop-color="#06001B"/>
</radialGradient>
<linearGradient id="paint5_linear_1970_7961" x1="7.29137" y1="16.9844" x2="7.29137" y2="23.8484" gradientUnits="userSpaceOnUse">
<stop stop-color="#6859FA"/>
<stop offset="1" stop-color="#490EF7"/>
</linearGradient>
<linearGradient id="paint6_linear_1970_7961" x1="12.1312" y1="21.8242" x2="12.1312" y2="28.6882" gradientUnits="userSpaceOnUse">
<stop stop-color="#6859FA"/>
<stop offset="1" stop-color="#5124F9"/>
</linearGradient>
<linearGradient id="paint7_linear_1970_7961" x1="13.5391" y1="20.4164" x2="20.4031" y2="20.4164" gradientUnits="userSpaceOnUse">
<stop stop-color="#ADA4FF"/>
<stop offset="1" stop-color="#7A6DFF"/>
</linearGradient>
<linearGradient id="paint8_linear_1970_7961" x1="13.5391" y1="20.4164" x2="20.4031" y2="20.4164" gradientUnits="userSpaceOnUse">
<stop stop-color="#9489FF"/>
<stop offset="1" stop-color="#531CFD"/>
</linearGradient>
<linearGradient id="paint9_linear_1970_7961" x1="25.2429" y1="15.5765" x2="18.3789" y2="15.5765" gradientUnits="userSpaceOnUse">
<stop stop-color="#9489FF"/>
<stop offset="1" stop-color="#531CFD"/>
</linearGradient>
<linearGradient id="paint10_linear_1970_7961" x1="18.3789" y1="15.5765" x2="25.2429" y2="15.5765" gradientUnits="userSpaceOnUse">
<stop stop-color="#ADA4FF"/>
<stop offset="1" stop-color="#7A6DFF"/>
</linearGradient>
<linearGradient id="paint11_linear_1970_7961" x1="16.9965" y1="9.14507" x2="10.1853" y2="9.88427" gradientUnits="userSpaceOnUse">
<stop stop-color="#CAC4FF"/>
<stop offset="0.495" stop-color="#9387F9"/>
<stop offset="1" stop-color="#6657F9"/>
</linearGradient>
</defs>
</svg>
